ply
format ascii 1.0
comment Created by Blender 3.3.0 - www.blender.org
element vertex 138
property float x
property float y
property float z
property float nx
property float ny
property float nz
property float s
property float t
element face 1004
property list uchar uint vertex_indices
end_header
-31.799999 18.600000 -15.800000 -0.577350 0.577350 -0.577350 0.875000 0.500000
31.799999 18.600000 15.800000 0.577350 0.577350 0.577350 0.625000 0.750000
31.799999 18.600000 -15.800000 0.577350 0.577350 -0.577350 0.625000 0.500000
-31.799999 -0.600000 15.800000 -0.577350 -0.577350 0.577350 0.375000 1.000000
31.799999 -0.600000 15.800000 0.577350 -0.577350 0.577350 0.375000 0.750000
-31.799999 18.600000 15.800000 -0.577350 0.577350 0.577350 0.625000 0.000000
-31.799999 -0.600000 -15.800000 -0.577350 -0.577350 -0.577350 0.375000 0.250000
-31.799999 -0.600000 15.800000 -0.577350 -0.577350 0.577350 0.375000 0.000000
31.799999 -0.600000 -15.800000 0.577350 -0.577350 -0.577350 0.375000 0.500000
-31.799999 -0.600000 15.800000 -0.577350 -0.577350 0.577350 0.125000 0.750000
-31.799999 -0.600000 -15.800000 -0.577350 -0.577350 -0.577350 0.125000 0.500000
-31.799999 18.600000 -15.800000 -0.577350 0.577350 -0.577350 0.625000 0.250000
-31.799999 18.600000 15.800000 -0.577350 0.577350 0.577350 0.875000 0.750000
-31.799999 18.600000 15.800000 -0.577350 0.577350 0.577350 0.625000 1.000000
-24.000000 22.199999 3.200000 -0.000000 0.685696 -0.727888 1.000000 1.000000
-23.063566 18.600000 3.292231 0.142004 -0.685696 -0.713901 0.968750 0.500000
-24.000000 18.600000 3.200000 0.000000 -0.685696 -0.727888 1.000000 0.500000
-23.063566 22.199999 3.292231 0.142004 0.685696 -0.713901 0.968750 1.000000
-22.163120 18.600000 3.565378 0.278550 -0.685697 -0.672480 0.937500 0.500000
-22.163120 22.199999 3.565378 0.278551 0.685696 -0.672481 0.937500 1.000000
-21.333263 18.600000 4.008945 0.404393 -0.685696 -0.605217 0.906250 0.500000
-21.333263 22.199999 4.008945 0.404393 0.685696 -0.605216 0.906250 1.000000
-20.605888 22.199999 4.605887 0.514694 0.685697 -0.514694 0.875000 1.000000
-20.008945 18.600000 5.333262 0.605217 -0.685696 -0.404393 0.843750 0.500000
-20.008945 22.199999 5.333262 0.605216 0.685696 -0.404393 0.843750 1.000000
-19.565378 18.600000 6.163119 0.672481 -0.685697 -0.278550 0.812500 0.500000
-19.565378 22.199999 6.163119 0.672481 0.685696 -0.278550 0.812500 1.000000
-19.292231 18.600000 7.063566 0.713902 -0.685696 -0.142004 0.781250 0.500000
-19.292231 22.199999 7.063566 0.713902 0.685696 -0.142004 0.781250 1.000000
-19.200001 18.600000 8.000000 0.727887 -0.685697 0.000000 0.750000 0.500000
-19.200001 22.199999 8.000000 0.727888 0.685697 -0.000000 0.750000 1.000000
-19.292231 18.600000 8.936434 0.713902 -0.685696 0.142004 0.718750 0.500000
-19.292231 22.199999 8.936434 0.713902 0.685696 0.142004 0.718750 1.000000
-19.565378 18.600000 9.836881 0.672481 -0.685697 0.278550 0.687500 0.500000
-19.565378 22.199999 9.836881 0.672481 0.685696 0.278550 0.687500 1.000000
-20.008945 18.600000 10.666738 0.605217 -0.685696 0.404393 0.656250 0.500000
-20.008945 22.199999 10.666738 0.605216 0.685696 0.404393 0.656250 1.000000
-21.333263 18.600000 11.991055 0.404393 -0.685696 0.605216 0.593750 0.500000
-21.333263 22.199999 11.991055 0.404393 0.685696 0.605216 0.593750 1.000000
-22.163120 18.600000 12.434622 0.278550 -0.685697 0.672480 0.562500 0.500000
-22.163120 22.199999 12.434622 0.278550 0.685697 0.672480 0.562500 1.000000
-23.063566 18.600000 12.707769 0.142004 -0.685696 0.713902 0.531250 0.500000
-23.063566 22.199999 12.707769 0.142004 0.685696 0.713901 0.531250 1.000000
-24.000000 18.600000 12.800000 -0.000000 -0.685696 0.727888 0.500000 0.500000
-24.000000 22.199999 12.800000 0.000000 0.685696 0.727888 0.500000 1.000000
-24.936434 18.600000 12.707769 -0.142004 -0.685696 0.713901 0.468750 0.500000
-24.936434 22.199999 12.707769 -0.142004 0.685696 0.713901 0.468750 1.000000
-25.836880 18.600000 12.434622 -0.278550 -0.685697 0.672480 0.437500 0.500000
-25.836880 22.199999 12.434622 -0.278551 0.685696 0.672481 0.437500 1.000000
-26.666737 18.600000 11.991055 -0.404393 -0.685696 0.605217 0.406250 0.500000
-26.666737 22.199999 11.991055 -0.404393 0.685696 0.605216 0.406250 1.000000
-27.991055 18.600000 10.666738 -0.605217 -0.685696 0.404393 0.343750 0.500000
-27.991055 22.199999 10.666738 -0.605216 0.685696 0.404393 0.343750 1.000000
-28.434622 18.600000 9.836881 -0.672481 -0.685697 0.278550 0.312500 0.500000
-28.434622 22.199999 9.836881 -0.672481 0.685696 0.278550 0.312500 1.000000
-28.707769 18.600000 8.936434 -0.713902 -0.685696 0.142004 0.281250 0.500000
-28.707769 22.199999 8.936434 -0.713902 0.685696 0.142004 0.281250 1.000000
-28.799999 18.600000 8.000000 -0.727887 -0.685697 -0.000000 0.250000 0.500000
-28.799999 22.199999 8.000000 -0.727888 0.685697 0.000000 0.250000 1.000000
-28.707769 18.600000 7.063566 -0.713902 -0.685696 -0.142004 0.218750 0.500000
-28.707769 22.199999 7.063566 -0.713902 0.685696 -0.142004 0.218750 1.000000
-28.434622 18.600000 6.163119 -0.672481 -0.685697 -0.278550 0.187500 0.500000
-28.434622 22.199999 6.163119 -0.672481 0.685696 -0.278551 0.187500 1.000000
-27.991055 18.600000 5.333262 -0.605217 -0.685696 -0.404393 0.156250 0.500000
-27.991055 22.199999 5.333262 -0.605216 0.685696 -0.404393 0.156250 1.000000
-27.394112 22.199999 4.605887 -0.514694 0.685697 -0.514694 0.125000 1.000000
-26.666737 18.600000 4.008945 -0.404393 -0.685696 -0.605216 0.093750 0.500000
-26.666737 22.199999 4.008945 -0.404393 0.685696 -0.605216 0.093750 1.000000
-25.836880 18.600000 3.565378 -0.278550 -0.685697 -0.672480 0.062500 0.500000
-25.836880 22.199999 12.434622 -0.278551 0.685696 0.672481 0.158156 0.028269
-19.565378 22.199999 9.836881 0.672481 0.685696 0.278550 0.471731 0.158156
-22.163120 22.199999 3.565378 0.278551 0.685696 -0.672481 0.341844 0.471731
-25.836880 22.199999 3.565378 -0.278550 0.685697 -0.672480 0.062500 1.000000
-24.936434 18.600000 3.292231 -0.142004 -0.685696 -0.713902 0.031250 0.500000
-24.936434 22.199999 3.292231 -0.142004 0.685696 -0.713901 0.031250 1.000000
-24.000000 18.600000 3.200000 0.000000 -0.685696 -0.727888 0.000000 0.500000
-23.063566 18.600000 12.707769 0.142004 -0.685696 0.713902 0.796822 0.014612
-28.707769 18.600000 8.936434 -0.713902 -0.685696 0.142004 0.514612 0.203178
-24.936434 18.600000 3.292231 -0.142004 -0.685696 -0.713902 0.703178 0.485388
-23.063566 22.199999 3.292231 0.142004 0.685696 -0.713901 0.296822 0.485388
-24.000000 22.199999 3.200000 -0.000000 0.685696 -0.727888 0.250000 0.490000
-24.936434 22.199999 3.292231 -0.142004 0.685696 -0.713901 0.203178 0.485388
-25.836880 22.199999 3.565378 -0.278550 0.685697 -0.672480 0.158156 0.471731
-26.666737 22.199999 4.008945 -0.404393 0.685696 -0.605216 0.116663 0.449553
-27.394112 22.199999 4.605887 -0.514694 0.685697 -0.514694 0.080294 0.419706
-27.991055 22.199999 5.333262 -0.605216 0.685696 -0.404393 0.050447 0.383337
-28.434622 22.199999 6.163119 -0.672481 0.685696 -0.278551 0.028269 0.341844
-28.707769 22.199999 7.063566 -0.713902 0.685696 -0.142004 0.014612 0.296822
-28.799999 22.199999 8.000000 -0.727888 0.685697 0.000000 0.010000 0.250000
-28.707769 22.199999 8.936434 -0.713902 0.685696 0.142004 0.014612 0.203178
-28.434622 22.199999 9.836881 -0.672481 0.685696 0.278550 0.028269 0.158156
-27.991055 22.199999 10.666738 -0.605216 0.685696 0.404393 0.050447 0.116663
-27.394112 22.199999 11.394113 -0.514694 0.685697 0.514694 0.080294 0.080294
-26.666737 22.199999 11.991055 -0.404393 0.685696 0.605216 0.116663 0.050447
-24.936434 22.199999 12.707769 -0.142004 0.685696 0.713901 0.203178 0.014612
-22.163120 22.199999 12.434622 0.278550 0.685697 0.672480 0.341844 0.028269
-24.000000 22.199999 12.800000 0.000000 0.685696 0.727888 0.250000 0.010000
-23.063566 22.199999 12.707769 0.142004 0.685696 0.713901 0.296822 0.014612
-21.333263 22.199999 11.991055 0.404393 0.685696 0.605216 0.383337 0.050447
-20.605888 22.199999 11.394113 0.514694 0.685697 0.514694 0.419706 0.080294
-20.008945 22.199999 10.666738 0.605216 0.685696 0.404393 0.449553 0.116663
-19.292231 22.199999 8.936434 0.713902 0.685696 0.142004 0.485388 0.203178
-19.565378 22.199999 6.163119 0.672481 0.685696 -0.278550 0.471731 0.341844
-19.200001 22.199999 8.000000 0.727888 0.685697 -0.000000 0.490000 0.250000
-19.292231 22.199999 7.063566 0.713902 0.685696 -0.142004 0.485388 0.296822
-20.008945 22.199999 5.333262 0.605216 0.685696 -0.404393 0.449553 0.383337
-20.605888 22.199999 4.605887 0.514694 0.685697 -0.514694 0.419706 0.419706
-21.333263 22.199999 4.008945 0.404393 0.685696 -0.605216 0.383337 0.449553
-24.000000 22.199999 3.200000 -0.000000 0.685696 -0.727888 0.000000 1.000000
-24.000000 18.600000 3.200000 0.000000 -0.685696 -0.727888 0.750000 0.490000
-23.063566 18.600000 3.292231 0.142004 -0.685696 -0.713901 0.796822 0.485388
-22.163120 18.600000 3.565378 0.278550 -0.685697 -0.672480 0.841844 0.471731
-21.333263 18.600000 4.008945 0.404393 -0.685696 -0.605217 0.883337 0.449553
-20.605888 18.600000 4.605887 0.514694 -0.685697 -0.514694 0.919706 0.419706
-20.008945 18.600000 5.333262 0.605217 -0.685696 -0.404393 0.949553 0.383337
-19.565378 18.600000 6.163119 0.672481 -0.685697 -0.278550 0.971731 0.341844
-19.292231 18.600000 7.063566 0.713902 -0.685696 -0.142004 0.985388 0.296822
-19.200001 18.600000 8.000000 0.727887 -0.685697 0.000000 0.990000 0.250000
-19.292231 18.600000 8.936434 0.713902 -0.685696 0.142004 0.985388 0.203178
-19.565378 18.600000 9.836881 0.672481 -0.685697 0.278550 0.971731 0.158156
-20.008945 18.600000 10.666738 0.605217 -0.685696 0.404393 0.949553 0.116663
-20.605888 18.600000 11.394113 0.514694 -0.685697 0.514694 0.919706 0.080294
-21.333263 18.600000 11.991055 0.404393 -0.685696 0.605216 0.883337 0.050447
-22.163120 18.600000 12.434622 0.278550 -0.685697 0.672480 0.841844 0.028269
-24.000000 18.600000 12.800000 -0.000000 -0.685696 0.727888 0.750000 0.010000
-24.936434 18.600000 12.707769 -0.142004 -0.685696 0.713901 0.703178 0.014612
-25.836880 18.600000 12.434622 -0.278550 -0.685697 0.672480 0.658156 0.028269
-26.666737 18.600000 11.991055 -0.404393 -0.685696 0.605217 0.616663 0.050447
-27.394112 18.600000 11.394113 -0.514694 -0.685697 0.514694 0.580294 0.080294
-27.991055 18.600000 10.666738 -0.605217 -0.685696 0.404393 0.550447 0.116663
-28.434622 18.600000 9.836881 -0.672481 -0.685697 0.278550 0.528269 0.158156
-28.799999 18.600000 8.000000 -0.727887 -0.685697 -0.000000 0.510000 0.250000
-28.707769 18.600000 7.063566 -0.713902 -0.685696 -0.142004 0.514612 0.296822
-28.434622 18.600000 6.163119 -0.672481 -0.685697 -0.278550 0.528269 0.341844
-27.991055 18.600000 5.333262 -0.605217 -0.685696 -0.404393 0.550447 0.383337
-27.394112 18.600000 4.605887 -0.514694 -0.685697 -0.514694 0.580294 0.419706
-26.666737 18.600000 4.008945 -0.404393 -0.685696 -0.605216 0.616663 0.449553
-25.836880 18.600000 3.565378 -0.278550 -0.685697 -0.672480 0.658156 0.471731
3 0 1 2
3 1 3 4
3 5 6 7
3 8 9 10
3 2 4 8
3 11 8 6
3 0 12 1
3 1 13 3
3 5 11 6
3 8 4 9
3 2 1 4
3 11 2 8
3 14 15 16
3 17 18 15
3 19 20 18
3 21 0 20
3 22 23 0
3 24 25 23
3 26 27 25
3 28 29 27
3 30 31 29
3 32 33 31
3 34 35 33
3 36 2 35
3 13 37 2
3 38 39 37
3 40 41 39
3 42 43 41
3 44 45 43
3 46 47 45
3 48 49 47
3 50 8 49
3 3 51 8
3 52 53 51
3 54 55 53
3 56 57 55
3 58 59 57
3 60 61 59
3 62 63 61
3 64 10 63
3 65 66 10
3 67 68 66
3 69 70 71
3 72 73 68
3 74 75 73
3 76 77 78
3 14 17 15
3 17 19 18
3 19 21 20
3 21 22 0
3 22 24 23
3 24 26 25
3 26 28 27
3 28 30 29
3 30 32 31
3 32 34 33
3 34 36 35
3 36 13 2
3 13 38 37
3 38 40 39
3 40 42 41
3 42 44 43
3 44 46 45
3 46 48 47
3 48 50 49
3 50 3 8
3 3 52 51
3 52 54 53
3 54 56 55
3 56 58 57
3 58 60 59
3 60 62 61
3 62 64 63
3 64 65 10
3 65 67 66
3 67 72 68
3 71 79 80
3 80 81 71
3 81 82 71
3 82 83 84
3 84 85 86
3 86 87 88
3 88 89 86
3 89 90 86
3 90 91 92
3 92 93 69
3 69 94 95
3 94 96 95
3 96 97 95
3 95 98 99
3 99 100 70
3 70 101 102
3 101 103 102
3 103 104 102
3 102 105 106
3 106 107 71
3 82 84 71
3 84 86 71
3 90 92 86
3 92 69 86
3 95 99 69
3 99 70 69
3 102 106 70
3 106 71 70
3 71 86 69
3 72 74 73
3 74 108 75
3 78 109 110
3 110 111 112
3 112 113 114
3 114 115 116
3 116 117 118
3 118 119 120
3 120 121 122
3 122 123 76
3 76 124 125
3 125 126 127
3 127 128 129
3 129 130 77
3 77 131 132
3 132 133 134
3 134 135 136
3 136 137 78
3 78 110 116
3 110 112 116
3 112 114 116
3 116 118 76
3 118 120 76
3 120 122 76
3 76 125 77
3 125 127 77
3 127 129 77
3 77 132 78
3 132 134 78
3 134 136 78
3 78 116 76
3 14 15 16
3 17 18 15
3 19 20 18
3 21 0 20
3 22 23 0
3 24 25 23
3 26 27 25
3 28 29 27
3 30 31 29
3 32 33 31
3 34 35 33
3 36 2 35
3 13 37 2
3 38 39 37
3 40 41 39
3 42 43 41
3 44 45 43
3 46 47 45
3 48 49 47
3 50 8 49
3 3 51 8
3 52 53 51
3 54 55 53
3 56 57 55
3 58 59 57
3 60 61 59
3 62 63 61
3 64 10 63
3 65 66 10
3 67 68 66
3 69 70 71
3 72 73 68
3 74 75 73
3 76 77 78
3 14 17 15
3 17 19 18
3 19 21 20
3 21 22 0
3 22 24 23
3 24 26 25
3 26 28 27
3 28 30 29
3 30 32 31
3 32 34 33
3 34 36 35
3 36 13 2
3 13 38 37
3 38 40 39
3 40 42 41
3 42 44 43
3 44 46 45
3 46 48 47
3 48 50 49
3 50 3 8
3 3 52 51
3 52 54 53
3 54 56 55
3 56 58 57
3 58 60 59
3 60 62 61
3 62 64 63
3 64 65 10
3 65 67 66
3 67 72 68
3 71 79 80
3 80 81 71
3 81 82 71
3 82 83 84
3 84 85 86
3 86 87 88
3 88 89 86
3 89 90 86
3 90 91 92
3 92 93 69
3 69 94 95
3 94 96 95
3 96 97 95
3 95 98 99
3 99 100 70
3 70 101 102
3 101 103 102
3 103 104 102
3 102 105 106
3 106 107 71
3 82 84 71
3 84 86 71
3 90 92 86
3 92 69 86
3 95 99 69
3 99 70 69
3 102 106 70
3 106 71 70
3 71 86 69
3 72 74 73
3 74 108 75
3 78 109 110
3 110 111 112
3 112 113 114
3 114 115 116
3 116 117 118
3 118 119 120
3 120 121 122
3 122 123 76
3 76 124 125
3 125 126 127
3 127 128 129
3 129 130 77
3 77 131 132
3 132 133 134
3 134 135 136
3 136 137 78
3 78 110 116
3 110 112 116
3 112 114 116
3 116 118 76
3 118 120 76
3 120 122 76
3 76 125 77
3 125 127 77
3 127 129 77
3 77 132 78
3 132 134 78
3 134 136 78
3 78 116 76
3 14 15 16
3 17 18 15
3 19 20 18
3 21 0 20
3 22 23 0
3 24 25 23
3 26 27 25
3 28 29 27
3 30 31 29
3 32 33 31
3 34 35 33
3 36 2 35
3 13 37 2
3 38 39 37
3 40 41 39
3 42 43 41
3 44 45 43
3 46 47 45
3 48 49 47
3 50 8 49
3 3 51 8
3 52 53 51
3 54 55 53
3 56 57 55
3 58 59 57
3 60 61 59
3 62 63 61
3 64 10 63
3 65 66 10
3 67 68 66
3 69 70 71
3 72 73 68
3 74 75 73
3 76 77 78
3 14 17 15
3 17 19 18
3 19 21 20
3 21 22 0
3 22 24 23
3 24 26 25
3 26 28 27
3 28 30 29
3 30 32 31
3 32 34 33
3 34 36 35
3 36 13 2
3 13 38 37
3 38 40 39
3 40 42 41
3 42 44 43
3 44 46 45
3 46 48 47
3 48 50 49
3 50 3 8
3 3 52 51
3 52 54 53
3 54 56 55
3 56 58 57
3 58 60 59
3 60 62 61
3 62 64 63
3 64 65 10
3 65 67 66
3 67 72 68
3 71 79 80
3 80 81 71
3 81 82 71
3 82 83 84
3 84 85 86
3 86 87 88
3 88 89 86
3 89 90 86
3 90 91 92
3 92 93 69
3 69 94 95
3 94 96 95
3 96 97 95
3 95 98 99
3 99 100 70
3 70 101 102
3 101 103 102
3 103 104 102
3 102 105 106
3 106 107 71
3 82 84 71
3 84 86 71
3 90 92 86
3 92 69 86
3 95 99 69
3 99 70 69
3 102 106 70
3 106 71 70
3 71 86 69
3 72 74 73
3 74 108 75
3 78 109 110
3 110 111 112
3 112 113 114
3 114 115 116
3 116 117 118
3 118 119 120
3 120 121 122
3 122 123 76
3 76 124 125
3 125 126 127
3 127 128 129
3 129 130 77
3 77 131 132
3 132 133 134
3 134 135 136
3 136 137 78
3 78 110 116
3 110 112 116
3 112 114 116
3 116 118 76
3 118 120 76
3 120 122 76
3 76 125 77
3 125 127 77
3 127 129 77
3 77 132 78
3 132 134 78
3 134 136 78
3 78 116 76
3 14 15 16
3 17 18 15
3 19 20 18
3 21 0 20
3 22 23 0
3 24 25 23
3 26 27 25
3 28 29 27
3 30 31 29
3 32 33 31
3 34 35 33
3 36 2 35
3 13 37 2
3 38 39 37
3 40 41 39
3 42 43 41
3 44 45 43
3 46 47 45
3 48 49 47
3 50 8 49
3 3 51 8
3 52 53 51
3 54 55 53
3 56 57 55
3 58 59 57
3 60 61 59
3 62 63 61
3 64 10 63
3 65 66 10
3 67 68 66
3 69 70 71
3 72 73 68
3 74 75 73
3 76 77 78
3 14 17 15
3 17 19 18
3 19 21 20
3 21 22 0
3 22 24 23
3 24 26 25
3 26 28 27
3 28 30 29
3 30 32 31
3 32 34 33
3 34 36 35
3 36 13 2
3 13 38 37
3 38 40 39
3 40 42 41
3 42 44 43
3 44 46 45
3 46 48 47
3 48 50 49
3 50 3 8
3 3 52 51
3 52 54 53
3 54 56 55
3 56 58 57
3 58 60 59
3 60 62 61
3 62 64 63
3 64 65 10
3 65 67 66
3 67 72 68
3 71 79 80
3 80 81 71
3 81 82 71
3 82 83 84
3 84 85 86
3 86 87 88
3 88 89 86
3 89 90 86
3 90 91 92
3 92 93 69
3 69 94 95
3 94 96 95
3 96 97 95
3 95 98 99
3 99 100 70
3 70 101 102
3 101 103 102
3 103 104 102
3 102 105 106
3 106 107 71
3 82 84 71
3 84 86 71
3 90 92 86
3 92 69 86
3 95 99 69
3 99 70 69
3 102 106 70
3 106 71 70
3 71 86 69
3 72 74 73
3 74 108 75
3 78 109 110
3 110 111 112
3 112 113 114
3 114 115 116
3 116 117 118
3 118 119 120
3 120 121 122
3 122 123 76
3 76 124 125
3 125 126 127
3 127 128 129
3 129 130 77
3 77 131 132
3 132 133 134
3 134 135 136
3 136 137 78
3 78 110 116
3 110 112 116
3 112 114 116
3 116 118 76
3 118 120 76
3 120 122 76
3 76 125 77
3 125 127 77
3 127 129 77
3 77 132 78
3 132 134 78
3 134 136 78
3 78 116 76
3 14 15 16
3 17 18 15
3 19 20 18
3 21 0 20
3 22 23 0
3 24 25 23
3 26 27 25
3 28 29 27
3 30 31 29
3 32 33 31
3 34 35 33
3 36 2 35
3 13 37 2
3 38 39 37
3 40 41 39
3 42 43 41
3 44 45 43
3 46 47 45
3 48 49 47
3 50 8 49
3 3 51 8
3 52 53 51
3 54 55 53
3 56 57 55
3 58 59 57
3 60 61 59
3 62 63 61
3 64 10 63
3 65 66 10
3 67 68 66
3 69 70 71
3 72 73 68
3 74 75 73
3 76 77 78
3 14 17 15
3 17 19 18
3 19 21 20
3 21 22 0
3 22 24 23
3 24 26 25
3 26 28 27
3 28 30 29
3 30 32 31
3 32 34 33
3 34 36 35
3 36 13 2
3 13 38 37
3 38 40 39
3 40 42 41
3 42 44 43
3 44 46 45
3 46 48 47
3 48 50 49
3 50 3 8
3 3 52 51
3 52 54 53
3 54 56 55
3 56 58 57
3 58 60 59
3 60 62 61
3 62 64 63
3 64 65 10
3 65 67 66
3 67 72 68
3 71 79 80
3 80 81 71
3 81 82 71
3 82 83 84
3 84 85 86
3 86 87 88
3 88 89 86
3 89 90 86
3 90 91 92
3 92 93 69
3 69 94 95
3 94 96 95
3 96 97 95
3 95 98 99
3 99 100 70
3 70 101 102
3 101 103 102
3 103 104 102
3 102 105 106
3 106 107 71
3 82 84 71
3 84 86 71
3 90 92 86
3 92 69 86
3 95 99 69
3 99 70 69
3 102 106 70
3 106 71 70
3 71 86 69
3 72 74 73
3 74 108 75
3 78 109 110
3 110 111 112
3 112 113 114
3 114 115 116
3 116 117 118
3 118 119 120
3 120 121 122
3 122 123 76
3 76 124 125
3 125 126 127
3 127 128 129
3 129 130 77
3 77 131 132
3 132 133 134
3 134 135 136
3 136 137 78
3 78 110 116
3 110 112 116
3 112 114 116
3 116 118 76
3 118 120 76
3 120 122 76
3 76 125 77
3 125 127 77
3 127 129 77
3 77 132 78
3 132 134 78
3 134 136 78
3 78 116 76
3 14 15 16
3 17 18 15
3 19 20 18
3 21 0 20
3 22 23 0
3 24 25 23
3 26 27 25
3 28 29 27
3 30 31 29
3 32 33 31
3 34 35 33
3 36 2 35
3 13 37 2
3 38 39 37
3 40 41 39
3 42 43 41
3 44 45 43
3 46 47 45
3 48 49 47
3 50 8 49
3 3 51 8
3 52 53 51
3 54 55 53
3 56 57 55
3 58 59 57
3 60 61 59
3 62 63 61
3 64 10 63
3 65 66 10
3 67 68 66
3 69 70 71
3 72 73 68
3 74 75 73
3 76 77 78
3 14 17 15
3 17 19 18
3 19 21 20
3 21 22 0
3 22 24 23
3 24 26 25
3 26 28 27
3 28 30 29
3 30 32 31
3 32 34 33
3 34 36 35
3 36 13 2
3 13 38 37
3 38 40 39
3 40 42 41
3 42 44 43
3 44 46 45
3 46 48 47
3 48 50 49
3 50 3 8
3 3 52 51
3 52 54 53
3 54 56 55
3 56 58 57
3 58 60 59
3 60 62 61
3 62 64 63
3 64 65 10
3 65 67 66
3 67 72 68
3 71 79 80
3 80 81 71
3 81 82 71
3 82 83 84
3 84 85 86
3 86 87 88
3 88 89 86
3 89 90 86
3 90 91 92
3 92 93 69
3 69 94 95
3 94 96 95
3 96 97 95
3 95 98 99
3 99 100 70
3 70 101 102
3 101 103 102
3 103 104 102
3 102 105 106
3 106 107 71
3 82 84 71
3 84 86 71
3 90 92 86
3 92 69 86
3 95 99 69
3 99 70 69
3 102 106 70
3 106 71 70
3 71 86 69
3 72 74 73
3 74 108 75
3 78 109 110
3 110 111 112
3 112 113 114
3 114 115 116
3 116 117 118
3 118 119 120
3 120 121 122
3 122 123 76
3 76 124 125
3 125 126 127
3 127 128 129
3 129 130 77
3 77 131 132
3 132 133 134
3 134 135 136
3 136 137 78
3 78 110 116
3 110 112 116
3 112 114 116
3 116 118 76
3 118 120 76
3 120 122 76
3 76 125 77
3 125 127 77
3 127 129 77
3 77 132 78
3 132 134 78
3 134 136 78
3 78 116 76
3 14 15 16
3 17 18 15
3 19 20 18
3 21 0 20
3 22 23 0
3 24 25 23
3 26 27 25
3 28 29 27
3 30 31 29
3 32 33 31
3 34 35 33
3 36 2 35
3 13 37 2
3 38 39 37
3 40 41 39
3 42 43 41
3 44 45 43
3 46 47 45
3 48 49 47
3 50 8 49
3 3 51 8
3 52 53 51
3 54 55 53
3 56 57 55
3 58 59 57
3 60 61 59
3 62 63 61
3 64 10 63
3 65 66 10
3 67 68 66
3 69 70 71
3 72 73 68
3 74 75 73
3 76 77 78
3 14 17 15
3 17 19 18
3 19 21 20
3 21 22 0
3 22 24 23
3 24 26 25
3 26 28 27
3 28 30 29
3 30 32 31
3 32 34 33
3 34 36 35
3 36 13 2
3 13 38 37
3 38 40 39
3 40 42 41
3 42 44 43
3 44 46 45
3 46 48 47
3 48 50 49
3 50 3 8
3 3 52 51
3 52 54 53
3 54 56 55
3 56 58 57
3 58 60 59
3 60 62 61
3 62 64 63
3 64 65 10
3 65 67 66
3 67 72 68
3 71 79 80
3 80 81 71
3 81 82 71
3 82 83 84
3 84 85 86
3 86 87 88
3 88 89 86
3 89 90 86
3 90 91 92
3 92 93 69
3 69 94 95
3 94 96 95
3 96 97 95
3 95 98 99
3 99 100 70
3 70 101 102
3 101 103 102
3 103 104 102
3 102 105 106
3 106 107 71
3 82 84 71
3 84 86 71
3 90 92 86
3 92 69 86
3 95 99 69
3 99 70 69
3 102 106 70
3 106 71 70
3 71 86 69
3 72 74 73
3 74 108 75
3 78 109 110
3 110 111 112
3 112 113 114
3 114 115 116
3 116 117 118
3 118 119 120
3 120 121 122
3 122 123 76
3 76 124 125
3 125 126 127
3 127 128 129
3 129 130 77
3 77 131 132
3 132 133 134
3 134 135 136
3 136 137 78
3 78 110 116
3 110 112 116
3 112 114 116
3 116 118 76
3 118 120 76
3 120 122 76
3 76 125 77
3 125 127 77
3 127 129 77
3 77 132 78
3 132 134 78
3 134 136 78
3 78 116 76
3 14 15 16
3 17 18 15
3 19 20 18
3 21 0 20
3 22 23 0
3 24 25 23
3 26 27 25
3 28 29 27
3 30 31 29
3 32 33 31
3 34 35 33
3 36 2 35
3 13 37 2
3 38 39 37
3 40 41 39
3 42 43 41
3 44 45 43
3 46 47 45
3 48 49 47
3 50 8 49
3 3 51 8
3 52 53 51
3 54 55 53
3 56 57 55
3 58 59 57
3 60 61 59
3 62 63 61
3 64 10 63
3 65 66 10
3 67 68 66
3 69 70 71
3 72 73 68
3 74 75 73
3 76 77 78
3 14 17 15
3 17 19 18
3 19 21 20
3 21 22 0
3 22 24 23
3 24 26 25
3 26 28 27
3 28 30 29
3 30 32 31
3 32 34 33
3 34 36 35
3 36 13 2
3 13 38 37
3 38 40 39
3 40 42 41
3 42 44 43
3 44 46 45
3 46 48 47
3 48 50 49
3 50 3 8
3 3 52 51
3 52 54 53
3 54 56 55
3 56 58 57
3 58 60 59
3 60 62 61
3 62 64 63
3 64 65 10
3 65 67 66
3 67 72 68
3 71 79 80
3 80 81 71
3 81 82 71
3 82 83 84
3 84 85 86
3 86 87 88
3 88 89 86
3 89 90 86
3 90 91 92
3 92 93 69
3 69 94 95
3 94 96 95
3 96 97 95
3 95 98 99
3 99 100 70
3 70 101 102
3 101 103 102
3 103 104 102
3 102 105 106
3 106 107 71
3 82 84 71
3 84 86 71
3 90 92 86
3 92 69 86
3 95 99 69
3 99 70 69
3 102 106 70
3 106 71 70
3 71 86 69
3 72 74 73
3 74 108 75
3 78 109 110
3 110 111 112
3 112 113 114
3 114 115 116
3 116 117 118
3 118 119 120
3 120 121 122
3 122 123 76
3 76 124 125
3 125 126 127
3 127 128 129
3 129 130 77
3 77 131 132
3 132 133 134
3 134 135 136
3 136 137 78
3 78 110 116
3 110 112 116
3 112 114 116
3 116 118 76
3 118 120 76
3 120 122 76
3 76 125 77
3 125 127 77
3 127 129 77
3 77 132 78
3 132 134 78
3 134 136 78
3 78 116 76
