ply
format ascii 1.0
comment Created by Blender 3.3.0 - www.blender.org
element vertex 138
property float x
property float y
property float z
property float nx
property float ny
property float nz
property float s
property float t
element face 1004
property list uchar uint vertex_indices
end_header
-31.799999 18.600000 -15.800000 -0.577350 0.577350 -0.577350 0.875000 0.500000
31.799999 18.600000 15.800000 0.577350 0.577350 0.577350 0.625000 0.750000
31.799999 18.600000 -15.800000 0.577350 0.577350 -0.577350 0.625000 0.500000
-31.799999 -0.600000 15.800000 -0.577350 -0.577350 0.577350 0.375000 1.000000
31.799999 -0.600000 15.800000 0.577350 -0.577350 0.577350 0.375000 0.750000
-31.799999 18.600000 15.800000 -0.577350 0.577350 0.577350 0.625000 0.000000
-31.799999 -0.600000 -15.800000 -0.577350 -0.577350 -0.577350 0.375000 0.250000
-31.799999 -0.600000 15.800000 -0.577350 -0.577350 0.577350 0.375000 0.000000
31.799999 -0.600000 -15.800000 0.577350 -0.577350 -0.577350 0.375000 0.500000
-31.799999 -0.600000 15.800000 -0.577350 -0.577350 0.577350 0.125000 0.750000
-31.799999 -0.600000 -15.800000 -0.577350 -0.577350 -0.577350 0.125000 0.500000
-31.799999 18.600000 -15.800000 -0.577350 0.577350 -0.577350 0.625000 0.250000
-23.999998 22.199997 3.199999 -0.000000 0.685696 -0.727888 1.000000 1.000000
-23.063564 18.599998 3.292230 0.142004 -0.685697 -0.713901 0.968750 0.500000
-23.999998 18.599998 3.199999 0.000000 -0.685696 -0.727888 1.000000 0.500000
-23.063564 22.199997 3.292230 0.142004 0.685697 -0.713901 0.968750 1.000000
-22.163118 18.599998 3.565378 0.278550 -0.685697 -0.672481 0.937500 0.500000
-22.163118 22.199997 3.565378 0.278550 0.685697 -0.672480 0.937500 1.000000
-21.333260 18.599998 4.008945 0.404393 -0.685696 -0.605216 0.906250 0.500000
-21.333260 22.199997 4.008945 0.404393 0.685696 -0.605217 0.906250 1.000000
-20.605886 22.199997 4.605887 0.514694 0.685697 -0.514694 0.875000 1.000000
-20.008944 18.599998 5.333262 0.605216 -0.685696 -0.404393 0.843750 0.500000
-20.008944 22.199997 5.333262 0.605216 0.685696 -0.404393 0.843750 1.000000
-19.565376 18.599998 6.163119 0.672480 -0.685697 -0.278551 0.812500 0.500000
-19.565376 22.199997 6.163119 0.672480 0.685697 -0.278551 0.812500 1.000000
-19.292227 18.599998 7.063566 0.713902 -0.685696 -0.142004 0.781250 0.500000
-19.292227 22.199997 7.063566 0.713902 0.685696 -0.142004 0.781250 1.000000
-19.199999 18.599998 7.999999 0.727887 -0.685697 -0.000000 0.750000 0.500000
-19.199999 22.199997 7.999999 0.727887 0.685697 -0.000000 0.750000 1.000000
-19.292227 18.599998 8.936433 0.713902 -0.685696 0.142004 0.718750 0.500000
-19.292227 22.199997 8.936433 0.713902 0.685696 0.142004 0.718750 1.000000
-19.565376 18.599998 9.836880 0.672480 -0.685697 0.278551 0.687500 0.500000
-19.565376 22.199997 9.836880 0.672480 0.685697 0.278551 0.687500 1.000000
-20.008944 18.599998 10.666736 0.605216 -0.685696 0.404393 0.656250 0.500000
-20.008944 22.199997 10.666736 0.605216 0.685696 0.404393 0.656250 1.000000
-20.605886 22.199997 11.394112 0.514694 0.685697 0.514694 0.625000 1.000000
-21.333260 18.599998 11.991054 0.404393 -0.685696 0.605217 0.593750 0.500000
-21.333260 22.199997 11.991054 0.404393 0.685696 0.605217 0.593750 1.000000
-22.163118 18.599998 12.434621 0.278550 -0.685697 0.672480 0.562500 0.500000
-22.163118 22.199997 12.434621 0.278550 0.685697 0.672480 0.562500 1.000000
-23.063564 18.599998 12.707768 0.142004 -0.685697 0.713901 0.531250 0.500000
-23.063564 22.199997 12.707768 0.142004 0.685697 0.713901 0.531250 1.000000
-23.999998 18.599998 12.799999 -0.000000 -0.685696 0.727888 0.500000 0.500000
-23.999998 22.199997 12.799999 0.000000 0.685696 0.727888 0.500000 1.000000
-24.936432 18.599998 12.707768 -0.142004 -0.685697 0.713901 0.468750 0.500000
-24.936432 22.199997 12.707768 -0.142004 0.685697 0.713901 0.468750 1.000000
-25.836878 18.599998 12.434621 -0.278550 -0.685697 0.672480 0.437500 0.500000
-25.836878 22.199997 12.434621 -0.278550 0.685697 0.672480 0.437500 1.000000
-26.666737 18.599998 11.991054 -0.404393 -0.685696 0.605217 0.406250 0.500000
-26.666737 22.199997 11.991054 -0.404393 0.685696 0.605217 0.406250 1.000000
-27.991053 18.599998 10.666736 -0.605216 -0.685696 0.404393 0.343750 0.500000
-27.991053 22.199997 10.666736 -0.605216 0.685696 0.404393 0.343750 1.000000
-28.434620 18.599998 9.836880 -0.672480 -0.685696 0.278551 0.312500 0.500000
-28.434620 22.199997 9.836880 -0.672480 0.685696 0.278551 0.312500 1.000000
-28.707767 18.599998 8.936433 -0.713902 -0.685696 0.142004 0.281250 0.500000
-28.707767 22.199997 8.936433 -0.713902 0.685696 0.142004 0.281250 1.000000
-28.799997 18.599998 7.999999 -0.727887 -0.685697 -0.000000 0.250000 0.500000
-28.799997 22.199997 7.999999 -0.727887 0.685697 -0.000000 0.250000 1.000000
-28.707767 18.599998 7.063566 -0.713902 -0.685696 -0.142004 0.218750 0.500000
-28.707767 22.199997 7.063566 -0.713902 0.685696 -0.142004 0.218750 1.000000
-28.434620 18.599998 6.163119 -0.672481 -0.685696 -0.278550 0.187500 0.500000
-28.434620 22.199997 6.163119 -0.672481 0.685696 -0.278550 0.187500 1.000000
-27.991053 18.599998 5.333262 -0.605217 -0.685696 -0.404393 0.156250 0.500000
-27.991053 22.199997 5.333262 -0.605216 0.685696 -0.404393 0.156250 1.000000
-27.394110 22.199997 4.605887 -0.514694 0.685697 -0.514694 0.125000 1.000000
-26.666737 18.599998 4.008945 -0.404393 -0.685696 -0.605217 0.093750 0.500000
-26.666737 22.199997 4.008945 -0.404393 0.685696 -0.605216 0.093750 1.000000
-25.836878 18.599998 3.565378 -0.278550 -0.685697 -0.672480 0.062500 0.500000
-20.605886 22.199997 4.605887 0.514694 0.685697 -0.514694 0.419706 0.419706
-21.333260 22.199997 4.008945 0.404393 0.685696 -0.605217 0.383337 0.449553
-27.394110 22.199997 4.605887 -0.514694 0.685697 -0.514694 0.080294 0.419706
-25.836878 22.199997 3.565378 -0.278550 0.685697 -0.672481 0.062500 1.000000
-24.936432 18.599998 3.292230 -0.142004 -0.685697 -0.713901 0.031250 0.500000
-24.936432 22.199997 3.292230 -0.142004 0.685697 -0.713901 0.031250 1.000000
-23.999998 18.599998 3.199999 0.000000 -0.685696 -0.727888 0.000000 0.500000
-26.666737 18.599998 4.008945 -0.404393 -0.685696 -0.605217 0.616663 0.449553
-25.836878 18.599998 3.565378 -0.278550 -0.685697 -0.672480 0.658156 0.471731
-21.333260 18.599998 4.008945 0.404393 -0.685696 -0.605216 0.883337 0.449553
-31.799999 18.600000 15.800000 -0.577350 0.577350 0.577350 0.875000 0.750000
-22.163118 22.199997 3.565378 0.278550 0.685697 -0.672480 0.341844 0.471731
-23.063564 22.199997 3.292230 0.142004 0.685697 -0.713901 0.296822 0.485388
-25.836878 22.199997 3.565378 -0.278550 0.685697 -0.672481 0.158156 0.471731
-23.999998 22.199997 3.199999 -0.000000 0.685696 -0.727888 0.250000 0.490000
-24.936432 22.199997 3.292230 -0.142004 0.685697 -0.713901 0.203178 0.485388
-26.666737 22.199997 4.008945 -0.404393 0.685696 -0.605216 0.116663 0.449553
-27.991053 22.199997 5.333262 -0.605216 0.685696 -0.404393 0.050447 0.383337
-28.434620 22.199997 6.163119 -0.672481 0.685696 -0.278550 0.028269 0.341844
-20.008944 22.199997 5.333262 0.605216 0.685696 -0.404393 0.449553 0.383337
-28.707767 22.199997 7.063566 -0.713902 0.685696 -0.142004 0.014612 0.296822
-19.292227 22.199997 7.063566 0.713902 0.685696 -0.142004 0.485388 0.296822
-28.799997 22.199997 7.999999 -0.727887 0.685697 -0.000000 0.010000 0.250000
-19.199999 22.199997 7.999999 0.727887 0.685697 -0.000000 0.490000 0.250000
-28.707767 22.199997 8.936433 -0.713902 0.685696 0.142004 0.014612 0.203178
-19.292227 22.199997 8.936433 0.713902 0.685696 0.142004 0.485388 0.203178
-28.434620 22.199997 9.836880 -0.672480 0.685696 0.278551 0.028269 0.158156
-19.565376 22.199997 9.836880 0.672480 0.685697 0.278551 0.471731 0.158156
-27.991053 22.199997 10.666736 -0.605216 0.685696 0.404393 0.050447 0.116663
-27.394110 22.199997 11.394112 -0.514694 0.685697 0.514694 0.080294 0.080294
-20.008944 22.199997 10.666736 0.605216 0.685696 0.404393 0.449553 0.116663
-26.666737 22.199997 11.991054 -0.404393 0.685696 0.605217 0.116663 0.050447
-20.605886 22.199997 11.394112 0.514694 0.685697 0.514694 0.419706 0.080294
-25.836878 22.199997 12.434621 -0.278550 0.685697 0.672480 0.158156 0.028269
-21.333260 22.199997 11.991054 0.404393 0.685696 0.605217 0.383337 0.050447
-24.936432 22.199997 12.707768 -0.142004 0.685697 0.713901 0.203178 0.014612
-23.063564 22.199997 12.707768 0.142004 0.685697 0.713901 0.296822 0.014612
-23.999998 22.199997 12.799999 0.000000 0.685696 0.727888 0.250000 0.010000
-22.163118 22.199997 12.434621 0.278550 0.685697 0.672480 0.341844 0.028269
-19.565376 22.199997 6.163119 0.672480 0.685697 -0.278551 0.471731 0.341844
-23.999998 22.199997 3.199999 -0.000000 0.685696 -0.727888 0.000000 1.000000
-24.936432 18.599998 3.292230 -0.142004 -0.685697 -0.713901 0.703178 0.485388
-23.999998 18.599998 3.199999 0.000000 -0.685696 -0.727888 0.750000 0.490000
-23.063564 18.599998 3.292230 0.142004 -0.685697 -0.713901 0.796822 0.485388
-22.163118 18.599998 3.565378 0.278550 -0.685697 -0.672481 0.841844 0.471731
-20.605886 18.599998 4.605887 0.514694 -0.685697 -0.514694 0.919706 0.419706
-27.394110 18.599998 4.605887 -0.514694 -0.685697 -0.514694 0.580294 0.419706
-20.008944 18.599998 5.333262 0.605216 -0.685696 -0.404393 0.949553 0.383337
-27.991053 18.599998 5.333262 -0.605217 -0.685696 -0.404393 0.550447 0.383337
-19.565376 18.599998 6.163119 0.672480 -0.685697 -0.278551 0.971731 0.341844
-19.292227 18.599998 7.063566 0.713902 -0.685696 -0.142004 0.985388 0.296822
-28.434620 18.599998 6.163119 -0.672481 -0.685696 -0.278550 0.528269 0.341844
-19.199999 18.599998 7.999999 0.727887 -0.685697 -0.000000 0.990000 0.250000
-28.799997 18.599998 7.999999 -0.727887 -0.685697 -0.000000 0.510000 0.250000
-19.292227 18.599998 8.936433 0.713902 -0.685696 0.142004 0.985388 0.203178
-28.707767 18.599998 8.936433 -0.713902 -0.685696 0.142004 0.514612 0.203178
-19.565376 18.599998 9.836880 0.672480 -0.685697 0.278551 0.971731 0.158156
-20.008944 18.599998 10.666736 0.605216 -0.685696 0.404393 0.949553 0.116663
-28.434620 18.599998 9.836880 -0.672480 -0.685696 0.278551 0.528269 0.158156
-20.605886 18.599998 11.394112 0.514694 -0.685697 0.514694 0.919706 0.080294
-27.394110 18.599998 11.394112 -0.514694 -0.685697 0.514694 0.580294 0.080294
-21.333260 18.599998 11.991054 0.404393 -0.685696 0.605217 0.883337 0.050447
-26.666737 18.599998 11.991054 -0.404393 -0.685696 0.605217 0.616663 0.050447
-22.163118 18.599998 12.434621 0.278550 -0.685697 0.672480 0.841844 0.028269
-23.063564 18.599998 12.707768 0.142004 -0.685697 0.713901 0.796822 0.014612
-25.836878 18.599998 12.434621 -0.278550 -0.685697 0.672480 0.658156 0.028269
-23.999998 18.599998 12.799999 -0.000000 -0.685696 0.727888 0.750000 0.010000
-24.936432 18.599998 12.707768 -0.142004 -0.685697 0.713901 0.703178 0.014612
-27.991053 18.599998 10.666736 -0.605216 -0.685696 0.404393 0.550447 0.116663
-28.707767 18.599998 7.063566 -0.713902 -0.685696 -0.142004 0.514612 0.296822
3 0 1 2
3 1 3 4
3 5 6 7
3 8 9 10
3 2 4 8
3 11 8 6
3 12 13 14
3 15 16 13
3 17 18 16
3 19 0 18
3 20 21 0
3 22 23 21
3 24 25 23
3 26 27 25
3 28 29 27
3 30 31 29
3 32 33 31
3 34 2 33
3 35 36 2
3 37 38 36
3 39 40 38
3 41 42 40
3 43 44 42
3 45 46 44
3 47 48 46
3 49 8 48
3 3 50 8
3 51 52 50
3 53 54 52
3 55 56 54
3 57 58 56
3 59 60 58
3 61 62 60
3 63 10 62
3 64 65 10
3 66 67 65
3 68 69 70
3 71 72 67
3 73 74 72
3 75 76 77
3 12 13 14
3 15 16 13
3 17 18 16
3 19 0 18
3 20 21 0
3 22 23 21
3 24 25 23
3 26 27 25
3 28 29 27
3 30 31 29
3 32 33 31
3 34 2 33
3 35 36 2
3 37 38 36
3 39 40 38
3 41 42 40
3 43 44 42
3 45 46 44
3 47 48 46
3 49 8 48
3 3 50 8
3 51 52 50
3 53 54 52
3 55 56 54
3 57 58 56
3 59 60 58
3 61 62 60
3 63 10 62
3 64 65 10
3 66 67 65
3 68 69 70
3 71 72 67
3 73 74 72
3 75 76 77
3 12 13 14
3 15 16 13
3 17 18 16
3 19 0 18
3 20 21 0
3 22 23 21
3 24 25 23
3 26 27 25
3 28 29 27
3 30 31 29
3 32 33 31
3 34 2 33
3 35 36 2
3 37 38 36
3 39 40 38
3 41 42 40
3 43 44 42
3 45 46 44
3 47 48 46
3 49 8 48
3 3 50 8
3 51 52 50
3 53 54 52
3 55 56 54
3 57 58 56
3 59 60 58
3 61 62 60
3 63 10 62
3 64 65 10
3 66 67 65
3 68 69 70
3 71 72 67
3 73 74 72
3 75 76 77
3 12 13 14
3 15 16 13
3 17 18 16
3 19 0 18
3 20 21 0
3 22 23 21
3 24 25 23
3 26 27 25
3 28 29 27
3 30 31 29
3 32 33 31
3 34 2 33
3 35 36 2
3 37 38 36
3 39 40 38
3 41 42 40
3 43 44 42
3 45 46 44
3 47 48 46
3 49 8 48
3 3 50 8
3 51 52 50
3 53 54 52
3 55 56 54
3 57 58 56
3 59 60 58
3 61 62 60
3 63 10 62
3 64 65 10
3 66 67 65
3 68 69 70
3 71 72 67
3 73 74 72
3 75 76 77
3 12 13 14
3 15 16 13
3 17 18 16
3 19 0 18
3 20 21 0
3 22 23 21
3 24 25 23
3 26 27 25
3 28 29 27
3 30 31 29
3 32 33 31
3 34 2 33
3 35 36 2
3 37 38 36
3 39 40 38
3 41 42 40
3 43 44 42
3 45 46 44
3 47 48 46
3 49 8 48
3 3 50 8
3 51 52 50
3 53 54 52
3 55 56 54
3 57 58 56
3 59 60 58
3 61 62 60
3 63 10 62
3 64 65 10
3 66 67 65
3 68 69 70
3 71 72 67
3 73 74 72
3 75 76 77
3 12 13 14
3 15 16 13
3 17 18 16
3 19 0 18
3 20 21 0
3 22 23 21
3 24 25 23
3 26 27 25
3 28 29 27
3 30 31 29
3 32 33 31
3 34 2 33
3 35 36 2
3 37 38 36
3 39 40 38
3 41 42 40
3 43 44 42
3 45 46 44
3 47 48 46
3 49 8 48
3 3 50 8
3 51 52 50
3 53 54 52
3 55 56 54
3 57 58 56
3 59 60 58
3 61 62 60
3 63 10 62
3 64 65 10
3 66 67 65
3 68 69 70
3 71 72 67
3 73 74 72
3 75 76 77
3 12 13 14
3 15 16 13
3 17 18 16
3 19 0 18
3 20 21 0
3 22 23 21
3 24 25 23
3 26 27 25
3 28 29 27
3 30 31 29
3 32 33 31
3 34 2 33
3 35 36 2
3 37 38 36
3 39 40 38
3 41 42 40
3 43 44 42
3 45 46 44
3 47 48 46
3 49 8 48
3 3 50 8
3 51 52 50
3 53 54 52
3 55 56 54
3 57 58 56
3 59 60 58
3 61 62 60
3 63 10 62
3 64 65 10
3 66 67 65
3 68 69 70
3 71 72 67
3 73 74 72
3 75 76 77
3 12 13 14
3 15 16 13
3 17 18 16
3 19 0 18
3 20 21 0
3 22 23 21
3 24 25 23
3 26 27 25
3 28 29 27
3 30 31 29
3 32 33 31
3 34 2 33
3 35 36 2
3 37 38 36
3 39 40 38
3 41 42 40
3 43 44 42
3 45 46 44
3 47 48 46
3 49 8 48
3 3 50 8
3 51 52 50
3 53 54 52
3 55 56 54
3 57 58 56
3 59 60 58
3 61 62 60
3 63 10 62
3 64 65 10
3 66 67 65
3 68 69 70
3 71 72 67
3 73 74 72
3 75 76 77
3 0 78 1
3 1 35 3
3 5 11 6
3 8 4 9
3 2 1 4
3 11 2 8
3 12 15 13
3 15 17 16
3 17 19 18
3 19 20 0
3 20 22 21
3 22 24 23
3 24 26 25
3 26 28 27
3 28 30 29
3 30 32 31
3 32 34 33
3 34 35 2
3 35 37 36
3 37 39 38
3 39 41 40
3 41 43 42
3 43 45 44
3 45 47 46
3 47 49 48
3 49 3 8
3 3 51 50
3 51 53 52
3 53 55 54
3 55 57 56
3 57 59 58
3 59 61 60
3 61 63 62
3 63 64 10
3 64 66 65
3 66 71 67
3 79 80 81
3 80 82 83
3 81 80 83
3 81 84 79
3 84 70 69
3 79 84 69
3 70 85 68
3 85 86 87
3 68 85 87
3 86 88 89
3 88 90 91
3 90 92 93
3 92 94 95
3 94 96 95
3 96 97 98
3 95 96 98
3 97 99 100
3 99 101 102
3 100 99 102
3 101 103 104
3 103 105 104
3 104 106 101
3 106 102 101
3 100 98 97
3 95 93 92
3 93 91 90
3 91 89 88
3 89 107 86
3 107 87 86
3 71 73 72
3 73 108 74
3 109 110 111
3 111 112 109
3 112 77 76
3 109 112 76
3 77 113 114
3 113 115 116
3 115 117 116
3 117 118 119
3 116 117 119
3 118 120 121
3 120 122 123
3 122 124 123
3 124 125 126
3 123 124 126
3 125 127 128
3 127 129 130
3 129 131 130
3 131 132 133
3 130 131 133
3 132 134 135
3 135 133 132
3 130 128 127
3 128 136 125
3 136 126 125
3 123 121 120
3 121 137 118
3 137 119 118
3 116 114 113
3 114 75 77
3 12 15 13
3 15 17 16
3 17 19 18
3 19 20 0
3 20 22 21
3 22 24 23
3 24 26 25
3 26 28 27
3 28 30 29
3 30 32 31
3 32 34 33
3 34 35 2
3 35 37 36
3 37 39 38
3 39 41 40
3 41 43 42
3 43 45 44
3 45 47 46
3 47 49 48
3 49 3 8
3 3 51 50
3 51 53 52
3 53 55 54
3 55 57 56
3 57 59 58
3 59 61 60
3 61 63 62
3 63 64 10
3 64 66 65
3 66 71 67
3 79 80 83
3 80 82 83
3 83 81 79
3 81 84 79
3 84 70 69
3 79 84 69
3 70 85 68
3 85 86 87
3 68 85 87
3 86 88 89
3 88 90 91
3 90 92 93
3 92 94 95
3 94 96 95
3 96 97 98
3 95 96 98
3 97 99 100
3 99 101 102
3 100 99 102
3 101 103 106
3 103 105 104
3 106 103 104
3 106 102 101
3 100 98 97
3 95 93 92
3 93 91 90
3 91 89 88
3 89 107 86
3 107 87 86
3 71 73 72
3 73 108 74
3 109 110 111
3 111 112 109
3 112 77 76
3 109 112 76
3 77 113 114
3 113 115 116
3 115 117 116
3 117 118 119
3 116 117 119
3 118 120 121
3 120 122 123
3 122 124 123
3 124 125 126
3 123 124 126
3 125 127 128
3 127 129 130
3 129 131 130
3 131 132 133
3 130 131 133
3 132 134 135
3 135 133 132
3 130 128 127
3 128 136 125
3 136 126 125
3 123 121 120
3 121 137 118
3 137 119 118
3 116 114 113
3 114 75 77
3 12 15 13
3 15 17 16
3 17 19 18
3 19 20 0
3 20 22 21
3 22 24 23
3 24 26 25
3 26 28 27
3 28 30 29
3 30 32 31
3 32 34 33
3 34 35 2
3 35 37 36
3 37 39 38
3 39 41 40
3 41 43 42
3 43 45 44
3 45 47 46
3 47 49 48
3 49 3 8
3 3 51 50
3 51 53 52
3 53 55 54
3 55 57 56
3 57 59 58
3 59 61 60
3 61 63 62
3 63 64 10
3 64 66 65
3 66 71 67
3 79 80 81
3 80 82 83
3 81 80 83
3 81 84 79
3 84 70 69
3 79 84 69
3 70 85 68
3 85 86 87
3 68 85 87
3 86 88 89
3 88 90 91
3 90 92 93
3 92 94 95
3 94 96 95
3 96 97 98
3 95 96 98
3 97 99 100
3 99 101 102
3 100 99 102
3 101 103 104
3 103 105 104
3 104 106 101
3 106 102 101
3 100 98 97
3 95 93 92
3 93 91 90
3 91 89 88
3 89 107 86
3 107 87 86
3 71 73 72
3 73 108 74
3 109 110 111
3 111 112 109
3 112 77 76
3 109 112 76
3 77 113 114
3 113 115 116
3 115 117 116
3 117 118 119
3 116 117 119
3 118 120 121
3 120 122 123
3 122 124 123
3 124 125 126
3 123 124 126
3 125 127 128
3 127 129 130
3 129 131 130
3 131 132 133
3 130 131 133
3 132 134 135
3 135 133 132
3 130 128 127
3 128 136 125
3 136 126 125
3 123 121 120
3 121 137 118
3 137 119 118
3 116 114 113
3 114 75 77
3 12 15 13
3 15 17 16
3 17 19 18
3 19 20 0
3 20 22 21
3 22 24 23
3 24 26 25
3 26 28 27
3 28 30 29
3 30 32 31
3 32 34 33
3 34 35 2
3 35 37 36
3 37 39 38
3 39 41 40
3 41 43 42
3 43 45 44
3 45 47 46
3 47 49 48
3 49 3 8
3 3 51 50
3 51 53 52
3 53 55 54
3 55 57 56
3 57 59 58
3 59 61 60
3 61 63 62
3 63 64 10
3 64 66 65
3 66 71 67
3 79 80 81
3 80 82 83
3 81 80 83
3 81 84 79
3 84 70 69
3 79 84 69
3 70 85 68
3 85 86 87
3 68 85 87
3 86 88 89
3 88 90 91
3 90 92 93
3 92 94 95
3 94 96 95
3 96 97 98
3 95 96 98
3 97 99 100
3 99 101 102
3 100 99 102
3 101 103 104
3 103 105 104
3 104 106 101
3 106 102 101
3 100 98 97
3 95 93 92
3 93 91 90
3 91 89 88
3 89 107 86
3 107 87 86
3 71 73 72
3 73 108 74
3 109 110 111
3 111 112 109
3 112 77 76
3 109 112 76
3 77 113 114
3 113 115 116
3 115 117 116
3 117 118 119
3 116 117 119
3 118 120 121
3 120 122 123
3 122 124 123
3 124 125 126
3 123 124 126
3 125 127 128
3 127 129 130
3 129 131 130
3 131 132 133
3 130 131 133
3 132 134 135
3 135 133 132
3 130 128 127
3 128 136 125
3 136 126 125
3 123 121 120
3 121 137 118
3 137 119 118
3 116 114 113
3 114 75 77
3 12 15 13
3 15 17 16
3 17 19 18
3 19 20 0
3 20 22 21
3 22 24 23
3 24 26 25
3 26 28 27
3 28 30 29
3 30 32 31
3 32 34 33
3 34 35 2
3 35 37 36
3 37 39 38
3 39 41 40
3 41 43 42
3 43 45 44
3 45 47 46
3 47 49 48
3 49 3 8
3 3 51 50
3 51 53 52
3 53 55 54
3 55 57 56
3 57 59 58
3 59 61 60
3 61 63 62
3 63 64 10
3 64 66 65
3 66 71 67
3 79 80 83
3 80 82 83
3 83 81 79
3 81 84 79
3 84 70 69
3 79 84 69
3 70 85 68
3 85 86 87
3 68 85 87
3 86 88 89
3 88 90 91
3 90 92 93
3 92 94 95
3 94 96 95
3 96 97 98
3 95 96 98
3 97 99 100
3 99 101 102
3 100 99 102
3 101 103 106
3 103 105 104
3 106 103 104
3 106 102 101
3 100 98 97
3 95 93 92
3 93 91 90
3 91 89 88
3 89 107 86
3 107 87 86
3 71 73 72
3 73 108 74
3 109 110 111
3 111 112 109
3 112 77 76
3 109 112 76
3 77 113 114
3 113 115 116
3 115 117 116
3 117 118 119
3 116 117 119
3 118 120 121
3 120 122 123
3 122 124 123
3 124 125 126
3 123 124 126
3 125 127 128
3 127 129 130
3 129 131 130
3 131 132 133
3 130 131 133
3 132 134 135
3 135 133 132
3 130 128 127
3 128 136 125
3 136 126 125
3 123 121 120
3 121 137 118
3 137 119 118
3 116 114 113
3 114 75 77
3 12 15 13
3 15 17 16
3 17 19 18
3 19 20 0
3 20 22 21
3 22 24 23
3 24 26 25
3 26 28 27
3 28 30 29
3 30 32 31
3 32 34 33
3 34 35 2
3 35 37 36
3 37 39 38
3 39 41 40
3 41 43 42
3 43 45 44
3 45 47 46
3 47 49 48
3 49 3 8
3 3 51 50
3 51 53 52
3 53 55 54
3 55 57 56
3 57 59 58
3 59 61 60
3 61 63 62
3 63 64 10
3 64 66 65
3 66 71 67
3 79 80 83
3 80 82 83
3 83 81 79
3 81 84 79
3 84 70 69
3 79 84 69
3 70 85 68
3 85 86 87
3 68 85 87
3 86 88 89
3 88 90 91
3 90 92 93
3 92 94 95
3 94 96 95
3 96 97 98
3 95 96 98
3 97 99 100
3 99 101 102
3 100 99 102
3 101 103 106
3 103 105 104
3 106 103 104
3 106 102 101
3 100 98 97
3 95 93 92
3 93 91 90
3 91 89 88
3 89 107 86
3 107 87 86
3 71 73 72
3 73 108 74
3 109 110 111
3 111 112 109
3 112 77 76
3 109 112 76
3 77 113 114
3 113 115 116
3 115 117 116
3 117 118 119
3 116 117 119
3 118 120 121
3 120 122 123
3 122 124 123
3 124 125 126
3 123 124 126
3 125 127 128
3 127 129 130
3 129 131 130
3 131 132 133
3 130 131 133
3 132 134 135
3 135 133 132
3 130 128 127
3 128 136 125
3 136 126 125
3 123 121 120
3 121 137 118
3 137 119 118
3 116 114 113
3 114 75 77
3 12 15 13
3 15 17 16
3 17 19 18
3 19 20 0
3 20 22 21
3 22 24 23
3 24 26 25
3 26 28 27
3 28 30 29
3 30 32 31
3 32 34 33
3 34 35 2
3 35 37 36
3 37 39 38
3 39 41 40
3 41 43 42
3 43 45 44
3 45 47 46
3 47 49 48
3 49 3 8
3 3 51 50
3 51 53 52
3 53 55 54
3 55 57 56
3 57 59 58
3 59 61 60
3 61 63 62
3 63 64 10
3 64 66 65
3 66 71 67
3 79 80 81
3 80 82 83
3 81 80 83
3 81 84 79
3 84 70 69
3 79 84 69
3 70 85 68
3 85 86 87
3 68 85 87
3 86 88 89
3 88 90 91
3 90 92 93
3 92 94 95
3 94 96 95
3 96 97 98
3 95 96 98
3 97 99 100
3 99 101 102
3 100 99 102
3 101 103 104
3 103 105 104
3 104 106 101
3 106 102 101
3 100 98 97
3 95 93 92
3 93 91 90
3 91 89 88
3 89 107 86
3 107 87 86
3 71 73 72
3 73 108 74
3 109 110 111
3 111 112 109
3 112 77 76
3 109 112 76
3 77 113 114
3 113 115 116
3 115 117 116
3 117 118 119
3 116 117 119
3 118 120 121
3 120 122 123
3 122 124 123
3 124 125 126
3 123 124 126
3 125 127 128
3 127 129 130
3 129 131 130
3 131 132 133
3 130 131 133
3 132 134 135
3 135 133 132
3 130 128 127
3 128 136 125
3 136 126 125
3 123 121 120
3 121 137 118
3 137 119 118
3 116 114 113
3 114 75 77
3 12 15 13
3 15 17 16
3 17 19 18
3 19 20 0
3 20 22 21
3 22 24 23
3 24 26 25
3 26 28 27
3 28 30 29
3 30 32 31
3 32 34 33
3 34 35 2
3 35 37 36
3 37 39 38
3 39 41 40
3 41 43 42
3 43 45 44
3 45 47 46
3 47 49 48
3 49 3 8
3 3 51 50
3 51 53 52
3 53 55 54
3 55 57 56
3 57 59 58
3 59 61 60
3 61 63 62
3 63 64 10
3 64 66 65
3 66 71 67
3 79 80 83
3 80 82 83
3 83 81 79
3 81 84 79
3 84 70 69
3 79 84 69
3 70 85 68
3 85 86 87
3 68 85 87
3 86 88 89
3 88 90 91
3 90 92 93
3 92 94 95
3 94 96 95
3 96 97 98
3 95 96 98
3 97 99 100
3 99 101 102
3 100 99 102
3 101 103 106
3 103 105 104
3 106 103 104
3 106 102 101
3 100 98 97
3 95 93 92
3 93 91 90
3 91 89 88
3 89 107 86
3 107 87 86
3 71 73 72
3 73 108 74
3 109 110 111
3 111 112 109
3 112 77 76
3 109 112 76
3 77 113 114
3 113 115 116
3 115 117 116
3 117 118 119
3 116 117 119
3 118 120 121
3 120 122 123
3 122 124 123
3 124 125 126
3 123 124 126
3 125 127 128
3 127 129 130
3 129 131 130
3 131 132 133
3 130 131 133
3 132 134 135
3 135 133 132
3 130 128 127
3 128 136 125
3 136 126 125
3 123 121 120
3 121 137 118
3 137 119 118
3 116 114 113
3 114 75 77
