ply
format ascii 1.0
comment Created by Blender 3.3.0 - www.blender.org
element vertex 120
property float x
property float y
property float z
property float nx
property float ny
property float nz
property float s
property float t
element face 478
property list uchar uint vertex_indices
end_header
-15.078498 -0.028915 -0.500867 -0.200247 0.034356 -0.979143 0.875000 0.500000
0.004355 0.299394 0.004048 0.665692 0.746217 -0.003755 0.625000 0.750000
-0.041637 -0.035180 -0.587033 0.544991 -0.062825 -0.836085 0.625000 0.500000
-0.034628 -0.037789 0.607593 0.548815 -0.070895 0.832932 0.375000 0.750000
-15.079775 0.190253 0.002841 -0.098191 0.993984 0.048523 0.625000 1.000000
-15.078438 -0.100995 0.523955 -0.210079 -0.114792 0.970922 0.375000 1.000000
-15.078438 -0.100995 0.523955 -0.210079 -0.114792 0.970922 0.399724 0.000000
-16.129719 -0.016469 -0.000000 -0.999566 0.029461 0.000785 0.512659 0.112341
-15.076571 -0.269779 -0.053720 -0.116020 -0.987477 -0.106901 0.375000 0.250000
-0.077502 -0.270019 -0.014920 0.572778 -0.819558 -0.015819 0.375000 0.500000
-15.078438 -0.100995 0.523955 -0.210079 -0.114792 0.970922 0.125000 0.750000
-15.076571 -0.269779 -0.053720 -0.116020 -0.987477 -0.106901 0.125000 0.500000
-15.078498 -0.028915 -0.500867 -0.200247 0.034356 -0.979143 0.625000 0.250000
-15.079775 0.190253 0.002841 -0.098191 0.993984 0.048523 0.625000 0.000000
-15.079775 0.190253 0.002841 -0.098191 0.993984 0.048523 0.875000 0.750000
-0.803351 0.411395 -3.724437 -0.001314 0.990868 0.134826 0.812500 0.505313
-0.881589 0.268269 -3.241478 -0.677914 0.701045 0.221287 0.875000 0.520833
-0.713871 0.268269 -3.241478 -0.000000 0.991507 0.130054 0.812500 0.520833
-0.288954 -0.411395 -3.724437 0.001314 -0.990868 0.134826 0.312500 0.505313
-0.210716 -0.268269 -3.241478 0.677914 -0.701045 0.221287 0.375000 0.520833
-0.378434 -0.268269 -3.241478 0.000000 -0.991507 0.130054 0.312500 0.520833
-0.031755 0.411395 -3.724437 0.701578 0.689728 0.179063 0.625000 0.505313
-0.031755 -0.411395 -3.724437 0.701578 -0.689728 0.179063 0.375000 0.505313
-0.724922 0.285946 -2.593182 0.000000 0.999651 -0.026426 0.812500 0.541667
-0.903692 0.285946 -2.593182 -0.706460 0.706505 -0.042004 0.875000 0.541667
-0.735300 0.302545 -1.944887 0.000000 0.999918 -0.012799 0.812500 0.562500
-0.924448 0.302545 -1.944887 -0.707658 0.706267 -0.020179 0.875000 0.562500
-0.735300 0.302545 -1.296591 0.000000 0.993864 -0.110611 0.812500 0.583333
-0.924448 0.302545 -1.296591 -0.686788 0.702778 -0.185541 0.875000 0.583333
-0.826648 0.448658 -0.648296 0.000000 0.993864 -0.110611 0.812500 0.604167
-1.107144 0.448658 -0.648296 -0.702361 0.693657 -0.159779 0.875000 0.604167
-0.826648 0.448658 -0.000000 0.000000 1.000000 0.000000 0.812500 0.625000
-0.881589 0.268269 -3.241478 -0.677914 0.701045 0.221287 0.625000 0.229167
-1.060550 -0.411395 -3.724437 -0.701578 -0.689728 0.179063 0.375000 0.244687
-0.881589 -0.268269 -3.241477 -0.677915 -0.701045 0.221287 0.375000 0.229167
-0.367383 -0.285946 -2.593182 -0.000000 -0.999651 -0.026426 0.312500 0.541667
-0.188613 -0.285946 -2.593182 0.706460 -0.706505 -0.042004 0.375000 0.541667
-0.357005 -0.302545 -1.944887 -0.000000 -0.999918 -0.012799 0.312500 0.562500
-0.167858 -0.302545 -1.944887 0.707658 -0.706267 -0.020179 0.375000 0.562500
-0.357005 -0.302545 -1.296591 -0.000000 -0.993864 -0.110611 0.312500 0.583333
-0.167858 -0.302545 -1.296591 0.686788 -0.702778 -0.185541 0.375000 0.583333
-0.265657 -0.448658 -0.648296 -0.000000 -0.993864 -0.110611 0.312500 0.604167
0.014839 -0.448658 -0.648296 0.702361 -0.693657 -0.159779 0.375000 0.604167
-0.265657 -0.448658 -0.000000 0.000000 -1.000000 0.000000 0.312500 0.625000
-1.054803 0.406799 -3.889773 -0.674117 0.602139 -0.427778 0.613337 0.261663
-0.800478 -0.406799 -4.025010 -0.244717 -0.669470 -0.701372 0.386663 0.318331
-1.054803 -0.406799 -3.889773 -0.674117 -0.602139 -0.427778 0.386663 0.261663
-0.210716 0.268269 -3.241477 0.677915 0.701045 0.221287 0.625000 0.520833
-0.188613 0.285946 -2.593182 0.706460 0.706505 -0.042004 0.625000 0.541667
-0.167858 0.302545 -1.944886 0.707658 0.706267 -0.020179 0.625000 0.562500
-0.167858 0.302545 -1.296591 0.686788 0.702778 -0.185541 0.625000 0.583333
0.014839 0.448658 -0.648295 0.702361 0.693657 -0.159779 0.625000 0.604167
0.014839 -0.448658 -0.000000 0.707107 -0.707107 0.000000 0.375000 0.625000
-1.107144 0.448658 -0.000000 -0.707107 0.707107 0.000000 0.625000 0.125000
-1.107144 -0.448658 -0.648295 -0.702361 -0.693657 -0.159779 0.375000 0.145833
-1.107144 -0.448658 0.000000 -0.707107 -0.707107 0.000000 0.375000 0.125000
-1.107144 0.448658 -0.648296 -0.702361 0.693657 -0.159779 0.625000 0.145833
-0.924448 -0.302545 -1.296591 -0.686788 -0.702778 -0.185541 0.375000 0.166667
-0.924448 0.302545 -1.296591 -0.686788 0.702778 -0.185541 0.625000 0.166667
-0.924448 -0.302545 -1.944886 -0.707658 -0.706267 -0.020179 0.375000 0.187500
-0.924448 0.302545 -1.944887 -0.707658 0.706267 -0.020179 0.625000 0.187500
-0.903692 -0.285946 -2.593182 -0.706460 -0.706505 -0.042004 0.375000 0.208333
-1.060550 0.411395 -3.724437 -0.701578 0.689728 0.179063 0.625000 0.244687
-0.803351 -0.411395 -3.724437 -0.001314 -0.990868 0.134826 0.375000 0.317691
-0.288954 0.411395 -3.724437 0.001314 0.990868 0.134826 0.625000 0.432309
-0.037502 0.406799 -3.889773 0.674117 0.602139 -0.427778 0.613338 0.488337
-0.291827 0.406799 -4.025010 0.244717 0.669470 -0.701372 0.613338 0.431669
-0.037502 -0.406799 -3.889773 0.674117 -0.602139 -0.427778 0.386663 0.488337
-0.291827 -0.406799 -4.025010 0.244717 -0.669470 -0.701372 0.386662 0.431669
-0.800478 0.406799 -4.025010 -0.244717 0.669470 -0.701372 0.613337 0.318331
-0.546153 -0.406799 -4.072483 0.000000 -0.663647 -0.748046 0.386662 0.375000
-0.546153 0.406799 -4.072483 -0.000000 0.663647 -0.748046 0.613337 0.375000
-0.803351 0.411395 -3.724437 -0.001314 0.990868 0.134826 0.625000 0.317691
-1.060550 0.411395 -3.724437 -0.701578 0.689728 0.179063 0.625000 0.260382
-0.546153 0.411395 -3.724437 -0.000000 0.990647 0.136447 0.625000 0.375000
-0.288954 -0.411395 -3.724437 0.001314 -0.990868 0.134826 0.375000 0.432309
-0.031755 -0.411395 -3.724437 0.701578 -0.689728 0.179063 0.375000 0.489618
-0.546153 -0.411395 -3.724437 0.000000 -0.990647 0.136447 0.375000 0.375000
-0.826648 -0.448658 -0.648295 -0.000000 -0.993864 -0.110611 0.187500 0.604167
-1.107144 -0.448658 0.000000 -0.707107 -0.707107 0.000000 0.125000 0.625000
-1.107144 -0.448658 -0.648295 -0.702361 -0.693657 -0.159779 0.125000 0.604167
-0.546153 -0.448658 -0.648296 -0.000000 -0.993864 -0.110611 0.250000 0.604167
-0.826648 -0.448658 0.000000 0.000000 -1.000000 0.000000 0.187500 0.625000
-0.546153 -0.448658 0.000000 0.000000 -1.000000 0.000000 0.250000 0.625000
-0.924448 -0.302545 -1.296591 -0.686788 -0.702778 -0.185541 0.125000 0.583333
-0.735300 -0.302545 -1.296591 -0.000000 -0.993864 -0.110611 0.187500 0.583333
-0.546153 -0.302545 -1.296591 -0.000000 -0.993864 -0.110611 0.250000 0.583333
-0.924448 -0.302545 -1.944886 -0.707658 -0.706267 -0.020179 0.125000 0.562500
-0.735300 -0.302545 -1.944886 -0.000000 -0.999918 -0.012799 0.187500 0.562500
-0.546153 -0.302545 -1.944887 -0.000000 -0.999918 -0.012799 0.250000 0.562500
-0.903692 -0.285946 -2.593182 -0.706460 -0.706505 -0.042004 0.125000 0.541667
-0.724922 -0.285946 -2.593182 -0.000000 -0.999651 -0.026426 0.187500 0.541667
-0.546153 -0.285946 -2.593182 -0.000000 -0.999651 -0.026426 0.250000 0.541667
-0.881589 -0.268269 -3.241477 -0.677915 -0.701045 0.221287 0.125000 0.520833
-0.713871 -0.268269 -3.241477 0.000000 -0.991507 0.130054 0.187500 0.520833
-0.546153 -0.268269 -3.241478 0.000000 -0.991507 0.130054 0.250000 0.520833
-0.265657 0.448658 -0.648295 0.000000 0.993864 -0.110611 0.687500 0.604167
0.014839 0.448658 0.000000 0.707107 0.707107 0.000000 0.625000 0.625000
-0.546153 0.448658 -0.648296 0.000000 0.993864 -0.110611 0.750000 0.604167
-0.265657 0.448658 0.000000 0.000000 1.000000 0.000000 0.687500 0.625000
-0.546153 0.448658 0.000000 0.000000 1.000000 0.000000 0.750000 0.625000
-0.357005 0.302545 -1.296591 0.000000 0.993864 -0.110611 0.687500 0.583333
-0.546153 0.302545 -1.296591 0.000000 0.993864 -0.110611 0.750000 0.583333
-0.357005 0.302545 -1.944886 0.000000 0.999918 -0.012799 0.687500 0.562500
-0.546153 0.302545 -1.944887 0.000000 0.999918 -0.012799 0.750000 0.562500
-0.367383 0.285946 -2.593182 0.000000 0.999651 -0.026426 0.687500 0.541667
-0.546153 0.285946 -2.593182 0.000000 0.999651 -0.026426 0.750000 0.541667
-0.378434 0.268269 -3.241477 -0.000000 0.991507 0.130054 0.687500 0.520833
-0.546153 0.268269 -3.241478 -0.000000 0.991507 0.130054 0.750000 0.520833
-0.803351 -0.411395 -3.724437 -0.001314 -0.990868 0.134826 0.187500 0.505313
-1.060550 -0.411395 -3.724437 -0.701578 -0.689728 0.179063 0.125000 0.505313
-0.546153 -0.411395 -3.724437 0.000000 -0.990647 0.136447 0.250000 0.505313
-0.288954 0.411395 -3.724437 0.001314 0.990868 0.134826 0.687500 0.505313
-0.546153 0.411395 -3.724437 -0.000000 0.990647 0.136447 0.750000 0.505313
-1.060550 0.411395 -3.724437 -0.701578 0.689728 0.179063 0.875000 0.505313
-1.107144 0.448658 -0.000000 -0.707107 0.707107 0.000000 0.875000 0.625000
-0.903692 0.285946 -2.593182 -0.706460 0.706505 -0.042004 0.625000 0.208333
-1.060550 -0.411395 -3.724437 -0.701578 -0.689728 0.179063 0.375000 0.260382
-0.031755 0.411395 -3.724437 0.701578 0.689728 0.179063 0.625000 0.489618
-0.532851 -0.527660 0.405364 0.000000 -0.577350 0.816497 0.375000 0.000000
3 0 1 2
3 3 4 5
3 6 7 8
3 9 10 11
3 9 1 3
3 12 9 8
3 8 7 12
3 12 7 13
3 7 6 13
3 0 14 1
3 3 1 4
3 9 3 10
3 9 2 1
3 12 2 9
3 15 16 17
3 18 19 20
3 21 19 22
3 16 23 17
3 24 25 23
3 26 27 25
3 28 29 27
3 30 31 29
3 32 33 34
3 19 35 20
3 36 37 35
3 38 39 37
3 40 41 39
3 42 43 41
3 44 45 46
3 47 36 19
3 48 38 36
3 49 40 38
3 50 42 40
3 51 52 42
3 53 54 55
3 56 57 54
3 58 59 57
3 60 61 59
3 61 32 34
3 46 62 44
3 63 46 45
3 64 65 66
3 22 65 21
3 66 67 68
3 69 70 45
3 71 68 70
3 72 44 73
3 74 69 72
3 74 66 71
3 75 67 76
3 77 68 75
3 77 45 70
3 78 79 80
3 81 82 78
3 41 83 81
3 84 78 80
3 85 81 78
3 39 81 86
3 87 85 84
3 88 86 85
3 89 39 86
3 90 88 87
3 91 89 88
3 35 89 92
3 93 91 90
3 94 92 91
3 20 92 95
3 96 97 51
3 98 99 96
3 29 100 98
3 50 96 51
3 101 98 96
3 27 98 102
3 49 101 50
3 103 102 101
3 104 27 102
3 48 103 49
3 105 104 103
3 23 104 106
3 47 105 48
3 107 106 105
3 17 106 108
3 109 93 110
3 111 94 109
3 111 20 95
3 112 47 21
3 113 107 112
3 113 17 108
3 15 16 17
3 18 19 20
3 21 19 22
3 16 23 17
3 24 25 23
3 26 27 25
3 28 29 27
3 30 31 29
3 32 33 34
3 19 35 20
3 36 37 35
3 38 39 37
3 40 41 39
3 42 43 41
3 44 45 46
3 47 36 19
3 48 38 36
3 49 40 38
3 50 42 40
3 51 52 42
3 53 54 55
3 56 57 54
3 58 59 57
3 60 61 59
3 61 32 34
3 46 62 44
3 63 46 45
3 64 65 66
3 22 65 21
3 66 67 68
3 69 70 45
3 71 68 70
3 72 44 73
3 74 69 72
3 74 66 71
3 75 67 76
3 77 68 75
3 77 45 70
3 78 79 80
3 81 82 78
3 41 83 81
3 84 78 80
3 85 81 78
3 39 81 86
3 87 85 84
3 88 86 85
3 89 39 86
3 90 88 87
3 91 89 88
3 35 89 92
3 93 91 90
3 94 92 91
3 20 92 95
3 96 97 51
3 98 99 96
3 29 100 98
3 50 96 51
3 101 98 96
3 27 98 102
3 49 101 50
3 103 102 101
3 104 27 102
3 48 103 49
3 105 104 103
3 23 104 106
3 47 105 48
3 107 106 105
3 17 106 108
3 109 93 110
3 111 94 109
3 111 20 95
3 112 47 21
3 113 107 112
3 113 17 108
3 15 114 16
3 18 22 19
3 21 47 19
3 16 24 23
3 24 26 25
3 26 28 27
3 28 30 29
3 30 115 31
3 32 62 33
3 19 36 35
3 36 38 37
3 38 40 39
3 40 42 41
3 42 52 43
3 44 69 45
3 47 48 36
3 48 49 38
3 49 50 40
3 50 51 42
3 51 97 52
3 53 56 54
3 56 58 57
3 58 60 59
3 60 116 61
3 61 116 32
3 46 33 62
3 63 117 46
3 64 118 65
3 22 67 65
3 66 65 67
3 69 71 70
3 71 66 68
3 72 69 44
3 74 71 69
3 74 64 66
3 75 68 67
3 77 70 68
3 77 63 45
3 78 82 79
3 81 83 82
3 41 43 83
3 84 85 78
3 85 86 81
3 39 41 81
3 87 88 85
3 88 89 86
3 89 37 39
3 90 91 88
3 91 92 89
3 35 37 89
3 93 94 91
3 94 95 92
3 20 35 92
3 96 99 97
3 98 100 99
3 29 31 100
3 50 101 96
3 101 102 98
3 27 29 98
3 49 103 101
3 103 104 102
3 104 25 27
3 48 105 103
3 105 106 104
3 23 25 104
3 47 107 105
3 107 108 106
3 17 23 106
3 109 94 93
3 111 95 94
3 111 18 20
3 112 107 47
3 113 108 107
3 113 15 17
3 15 114 16
3 18 22 19
3 21 47 19
3 16 24 23
3 24 26 25
3 26 28 27
3 28 30 29
3 30 115 31
3 32 62 33
3 19 36 35
3 36 38 37
3 38 40 39
3 40 42 41
3 42 52 43
3 44 69 45
3 47 48 36
3 48 49 38
3 49 50 40
3 50 51 42
3 51 97 52
3 53 56 54
3 56 58 57
3 58 60 59
3 60 116 61
3 61 116 32
3 46 33 62
3 63 117 46
3 64 118 65
3 22 67 65
3 66 65 67
3 69 71 70
3 71 66 68
3 72 69 44
3 74 71 69
3 74 64 66
3 75 68 67
3 77 70 68
3 77 63 45
3 78 82 79
3 81 83 82
3 41 43 83
3 84 85 78
3 85 86 81
3 39 41 81
3 87 88 85
3 88 89 86
3 89 37 39
3 90 91 88
3 91 92 89
3 35 37 89
3 93 94 91
3 94 95 92
3 20 35 92
3 96 99 97
3 98 100 99
3 29 31 100
3 50 101 96
3 101 102 98
3 27 29 98
3 49 103 101
3 103 104 102
3 104 25 27
3 48 105 103
3 105 106 104
3 23 25 104
3 47 107 105
3 107 108 106
3 17 23 106
3 109 94 93
3 111 95 94
3 111 18 20
3 112 107 47
3 113 108 107
3 113 15 17
3 15 16 17
3 18 19 20
3 21 19 22
3 16 23 17
3 24 25 23
3 26 27 25
3 28 29 27
3 30 31 29
3 32 33 34
3 19 35 20
3 36 37 35
3 38 39 37
3 40 41 39
3 42 43 41
3 44 45 46
3 47 36 19
3 48 38 36
3 49 40 38
3 50 42 40
3 51 52 42
3 53 54 55
3 56 57 54
3 58 59 57
3 60 61 59
3 61 32 34
3 46 62 44
3 63 46 45
3 64 65 66
3 22 65 21
3 66 67 68
3 69 70 45
3 71 68 70
3 72 44 73
3 74 69 72
3 74 66 71
3 75 67 76
3 77 68 75
3 77 45 70
3 78 79 80
3 81 82 78
3 41 83 81
3 84 78 80
3 85 81 78
3 39 81 86
3 87 85 84
3 88 86 85
3 89 39 86
3 90 88 87
3 91 89 88
3 35 89 92
3 93 91 90
3 94 92 91
3 20 92 95
3 96 97 51
3 98 99 96
3 29 100 98
3 50 96 51
3 101 98 96
3 27 98 102
3 49 101 50
3 103 102 101
3 104 27 102
3 48 103 49
3 105 104 103
3 23 104 106
3 47 105 48
3 107 106 105
3 17 106 108
3 109 93 110
3 111 94 109
3 111 20 95
3 112 47 21
3 113 107 112
3 113 17 108
3 83 43 100
3 15 114 16
3 18 22 19
3 21 47 19
3 16 24 23
3 24 26 25
3 26 28 27
3 28 30 29
3 30 115 31
3 32 62 33
3 19 36 35
3 36 38 37
3 38 40 39
3 40 42 41
3 42 52 43
3 44 69 45
3 47 48 36
3 48 49 38
3 49 50 40
3 50 51 42
3 51 97 52
3 53 56 54
3 56 58 57
3 58 60 59
3 60 116 61
3 61 116 32
3 46 33 62
3 63 117 46
3 64 118 65
3 22 67 65
3 66 65 67
3 69 71 70
3 71 66 68
3 72 69 44
3 74 71 69
3 74 64 66
3 75 68 67
3 77 70 68
3 77 63 45
3 78 82 79
3 81 83 82
3 41 43 83
3 84 85 78
3 85 86 81
3 39 41 81
3 87 88 85
3 88 89 86
3 89 37 39
3 90 91 88
3 91 92 89
3 35 37 89
3 93 94 91
3 94 95 92
3 20 35 92
3 96 99 97
3 98 100 99
3 29 31 100
3 50 101 96
3 101 102 98
3 27 29 98
3 49 103 101
3 103 104 102
3 104 25 27
3 48 105 103
3 105 106 104
3 23 25 104
3 47 107 105
3 107 108 106
3 17 23 106
3 109 94 93
3 111 95 94
3 111 18 20
3 112 107 47
3 113 108 107
3 113 15 17
3 97 99 52
3 99 100 43
3 52 99 43
3 31 115 55
3 100 31 82
3 31 55 82
3 82 83 100
3 13 8 119
3 12 9 8
3 2 3 9
3 1 5 3
3 9 10 11
3 0 1 2
3 13 12 8
3 12 2 9
3 2 1 3
3 1 4 5
3 9 3 10
3 0 14 1
